<svg width="3143" height="1980" xmlns="http://www.w3.org/2000/svg" xmlns:xlink="http://www.w3.org/1999/xlink" overflow="hidden"><defs><clipPath id="clip0"><rect x="0" y="1056" width="3143" height="1980"/></clipPath><clipPath id="clip1"><rect x="0" y="1056" width="1650" height="990"/></clipPath><clipPath id="clip2"><rect x="402" y="1276" width="683" height="683"/></clipPath><radialGradient cx="617913" cy="329738" r="700388" fx="617913" gradientUnits="userSpaceOnUse" spreadMethod="pad" id="fill3" gradientTransform="matrix(0.000360892 0 0 0.000360892 462.5 1525.5)"><stop offset="0" stop-color="#F6F8FC" stop-opacity="0"/><stop offset="0.69" stop-color="#4472C4" stop-opacity="0.360784"/><stop offset="1" stop-color="#4472C4" stop-opacity="0.360784"/></radialGradient><clipPath id="clip4"><rect x="402" y="1276" width="683" height="683"/></clipPath><clipPath id="clip5"><rect x="0" y="1056" width="1650" height="990"/></clipPath><clipPath id="clip6"><rect x="0" y="1056" width="1650" height="990"/></clipPath><clipPath id="clip7"><rect x="0" y="1056" width="1650" height="990"/></clipPath><clipPath id="clip8"><rect x="0" y="1056" width="1650" height="990"/></clipPath><clipPath id="clip9"><rect x="0" y="1056" width="1650" height="990"/></clipPath><clipPath id="clip10"><rect x="0" y="1056" width="1650" height="990"/></clipPath><clipPath id="clip11"><rect x="0" y="1056" width="1650" height="990"/></clipPath><clipPath id="clip12"><rect x="0" y="1056" width="1650" height="990"/></clipPath><clipPath id="clip13"><rect x="0" y="1056" width="1650" height="990"/></clipPath><clipPath id="clip14"><rect x="0" y="1056" width="1650" height="990"/></clipPath><clipPath id="clip15"><rect x="0" y="1056" width="1650" height="990"/></clipPath><clipPath id="clip16"><rect x="0" y="1056" width="1650" height="990"/></clipPath><clipPath id="clip17"><rect x="0" y="1056" width="1650" height="990"/></clipPath><radialGradient cx="30480" cy="31865.5" r="44095.8" fx="30480" fy="31865.5" gradientUnits="userSpaceOnUse" spreadMethod="pad" id="fill18" gradientTransform="matrix(0.000360892 0 0 0.000360892 1506.5 1566.5)"><stop offset="0" stop-color="#F6F8FC" stop-opacity="0"/><stop offset="0.69" stop-color="#4472C4" stop-opacity="0.360784"/><stop offset="1" stop-color="#4472C4" stop-opacity="0.360784"/></radialGradient><clipPath id="clip19"><rect x="0" y="1056" width="1650" height="990"/></clipPath><clipPath id="clip20"><rect x="0" y="1056" width="1650" height="990"/></clipPath><clipPath id="clip21"><rect x="0" y="1056" width="1650" height="990"/></clipPath><clipPath id="clip22"><rect x="0" y="2046" width="1650" height="990"/></clipPath><clipPath id="clip23"><rect x="401" y="2266" width="683" height="683"/></clipPath><radialGradient cx="617912" cy="329738" r="700388" gradientUnits="userSpaceOnUse" spreadMethod="pad" id="fill24" gradientTransform="matrix(0.000360892 0 0 0.000360892 461.5 2515.5)"><stop offset="0" stop-color="#F6F8FC" stop-opacity="0"/><stop offset="0.69" stop-color="#4472C4" stop-opacity="0.360784"/><stop offset="1" stop-color="#4472C4" stop-opacity="0.360784"/></radialGradient><clipPath id="clip25"><rect x="401" y="2266" width="683" height="683"/></clipPath><clipPath id="clip26"><rect x="0" y="2046" width="1650" height="990"/></clipPath><clipPath id="clip27"><rect x="0" y="2046" width="1650" height="990"/></clipPath><clipPath id="clip28"><rect x="0" y="2046" width="1650" height="990"/></clipPath><clipPath id="clip29"><rect x="0" y="2046" width="1650" height="990"/></clipPath><clipPath id="clip30"><rect x="0" y="2046" width="1650" height="990"/></clipPath><clipPath id="clip31"><rect x="0" y="2046" width="1650" height="990"/></clipPath><clipPath id="clip32"><rect x="0" y="2046" width="1650" height="990"/></clipPath><clipPath id="clip33"><rect x="0" y="2046" width="1650" height="990"/></clipPath><clipPath id="clip34"><rect x="0" y="2046" width="1650" height="990"/></clipPath><clipPath id="clip35"><rect x="0" y="2046" width="1650" height="990"/></clipPath><clipPath id="clip36"><rect x="0" y="2046" width="1650" height="990"/></clipPath><clipPath id="clip37"><rect x="0" y="2046" width="1650" height="990"/></clipPath><clipPath id="clip38"><rect x="0" y="2046" width="1650" height="990"/></clipPath><radialGradient cx="31865.5" cy="31865.5" r="45064.6" fx="31865.5" fy="31865.5" gradientUnits="userSpaceOnUse" spreadMethod="pad" id="fill39" gradientTransform="matrix(0.000360892 0 0 0.000360892 1504.5 2556.5)"><stop offset="0" stop-color="#F6F8FC" stop-opacity="0"/><stop offset="0.69" stop-color="#4472C4" stop-opacity="0.360784"/><stop offset="1" stop-color="#4472C4" stop-opacity="0.360784"/></radialGradient><clipPath id="clip40"><rect x="0" y="2046" width="1650" height="990"/></clipPath><clipPath id="clip41"><rect x="0" y="2046" width="1650" height="990"/></clipPath><clipPath id="clip42"><rect x="0" y="2046" width="1650" height="990"/></clipPath><clipPath id="clip43"><rect x="1493" y="1056" width="1650" height="990"/></clipPath><clipPath id="clip44"><rect x="1895" y="1276" width="683" height="683"/></clipPath><radialGradient cx="617912" cy="329738" r="700388" gradientUnits="userSpaceOnUse" spreadMethod="pad" id="fill45" gradientTransform="matrix(0.000360892 0 0 0.000360892 1955.5 1525.5)"><stop offset="0" stop-color="#F6F8FC" stop-opacity="0"/><stop offset="0.69" stop-color="#4472C4" stop-opacity="0.360784"/><stop offset="1" stop-color="#4472C4" stop-opacity="0.360784"/></radialGradient><clipPath id="clip46"><rect x="1895" y="1276" width="683" height="683"/></clipPath><clipPath id="clip47"><rect x="1493" y="1056" width="1650" height="990"/></clipPath><clipPath id="clip48"><rect x="1493" y="1056" width="1650" height="990"/></clipPath><clipPath id="clip49"><rect x="1493" y="1056" width="1650" height="990"/></clipPath><clipPath id="clip50"><rect x="1493" y="1056" width="1650" height="990"/></clipPath><clipPath id="clip51"><rect x="1493" y="1056" width="1650" height="990"/></clipPath><clipPath id="clip52"><rect x="1493" y="1056" width="1650" height="990"/></clipPath><clipPath id="clip53"><rect x="1493" y="1056" width="1650" height="990"/></clipPath><clipPath id="clip54"><rect x="1493" y="1056" width="1650" height="990"/></clipPath><clipPath id="clip55"><rect x="1493" y="1056" width="1650" height="990"/></clipPath><clipPath id="clip56"><rect x="1493" y="1056" width="1650" height="990"/></clipPath><clipPath id="clip57"><rect x="1493" y="1056" width="1650" height="990"/></clipPath><clipPath id="clip58"><rect x="1493" y="1056" width="1650" height="990"/></clipPath><clipPath id="clip59"><rect x="1493" y="1056" width="1650" height="990"/></clipPath><radialGradient cx="30480" cy="31865.5" r="44095.8" fx="30480" fy="31865.5" gradientUnits="userSpaceOnUse" spreadMethod="pad" id="fill60" gradientTransform="matrix(0.000360892 0 0 0.000360892 2999.5 1566.5)"><stop offset="0" stop-color="#F6F8FC" stop-opacity="0"/><stop offset="0.69" stop-color="#4472C4" stop-opacity="0.360784"/><stop offset="1" stop-color="#4472C4" stop-opacity="0.360784"/></radialGradient><clipPath id="clip61"><rect x="1493" y="1056" width="1650" height="990"/></clipPath><clipPath id="clip62"><rect x="1493" y="1056" width="1650" height="990"/></clipPath><clipPath id="clip63"><rect x="1493" y="1056" width="1650" height="990"/></clipPath><clipPath id="clip64"><rect x="1493" y="2046" width="1650" height="990"/></clipPath><clipPath id="clip65"><rect x="1893" y="2266" width="683" height="683"/></clipPath><radialGradient cx="617912" cy="329738" r="700388" gradientUnits="userSpaceOnUse" spreadMethod="pad" id="fill66" gradientTransform="matrix(0.000360892 0 0 0.000360892 1953.5 2515.5)"><stop offset="0" stop-color="#F6F8FC" stop-opacity="0"/><stop offset="0.69" stop-color="#4472C4" stop-opacity="0.360784"/><stop offset="1" stop-color="#4472C4" stop-opacity="0.360784"/></radialGradient><clipPath id="clip67"><rect x="1893" y="2266" width="683" height="683"/></clipPath><clipPath id="clip68"><rect x="1493" y="2046" width="1650" height="990"/></clipPath><clipPath id="clip69"><rect x="1493" y="2046" width="1650" height="990"/></clipPath><clipPath id="clip70"><rect x="1493" y="2046" width="1650" height="990"/></clipPath><clipPath id="clip71"><rect x="1493" y="2046" width="1650" height="990"/></clipPath><clipPath id="clip72"><rect x="1493" y="2046" width="1650" height="990"/></clipPath><clipPath id="clip73"><rect x="1493" y="2046" width="1650" height="990"/></clipPath><clipPath id="clip74"><rect x="1493" y="2046" width="1650" height="990"/></clipPath><clipPath id="clip75"><rect x="1493" y="2046" width="1650" height="990"/></clipPath><clipPath id="clip76"><rect x="1493" y="2046" width="1650" height="990"/></clipPath><clipPath id="clip77"><rect x="1493" y="2046" width="1650" height="990"/></clipPath><clipPath id="clip78"><rect x="1493" y="2046" width="1650" height="990"/></clipPath><clipPath id="clip79"><rect x="1493" y="2046" width="1650" height="990"/></clipPath><clipPath id="clip80"><rect x="1493" y="2046" width="1650" height="990"/></clipPath><radialGradient cx="30480" cy="31865.5" r="44095.8" fx="30480" fy="31865.5" gradientUnits="userSpaceOnUse" spreadMethod="pad" id="fill81" gradientTransform="matrix(0.000360892 0 0 0.000360892 2995.5 2556.5)"><stop offset="0" stop-color="#F6F8FC" stop-opacity="0"/><stop offset="0.69" stop-color="#4472C4" stop-opacity="0.360784"/><stop offset="1" stop-color="#4472C4" stop-opacity="0.360784"/></radialGradient><clipPath id="clip82"><rect x="1493" y="2046" width="1650" height="990"/></clipPath><clipPath id="clip83"><rect x="1493" y="2046" width="1650" height="990"/></clipPath><clipPath id="clip84"><rect x="1493" y="2046" width="1650" height="990"/></clipPath></defs><g clip-path="url(#clip0)" transform="matrix(1 0 0 1 0 -1056)"><g clip-path="url(#clip1)"><path d="M742.525 1548.55 806.527 1595.55M806.527 1595.55 782.526 1671.56M782.526 1671.56 702.523 1671.56M702.523 1671.56 677.522 1595.55M677.522 1595.55 742.525 1548.55M742.525 1480.55 871.529 1574.55M871.529 1574.55 822.527 1726.56M822.527 1726.56 662.522 1726.56M662.522 1726.56 612.52 1574.55M612.52 1574.55 742.525 1480.55M742.525 1412.55 936.531 1553.55M936.531 1553.55 862.528 1781.56M862.528 1781.56 622.521 1781.56M622.521 1781.56 548.518 1553.55M548.518 1553.55 742.525 1412.55M742.525 1344.54 1000.53 1532.55M1000.53 1532.55 901.53 1836.56M901.53 1836.56 582.519 1836.56M582.519 1836.56 483.516 1532.55M483.516 1532.55 742.525 1344.54M742.525 1276.5 1065.5 1511.55M1065.5 1511.55 941.531 1891.5M941.531 1891.5 542.518 1891.5M542.518 1891.5 419.5 1511.55M419.5 1511.55 742.525 1276.5" stroke="#D9D9D9" stroke-width="3.4375" stroke-linejoin="round" stroke-miterlimit="10" fill="none"/></g><g clip-path="url(#clip2)"><path d="M742.525 1573.55 908.5 1562.55 849.528 1763.5 635.521 1763.5 462.5 1525.5Z" stroke="#4472C4" stroke-width="4.58333" stroke-linejoin="round" stroke-miterlimit="10" stroke-opacity="0.439216" fill="url(#fill3)"/></g><g clip-path="url(#clip4)"><path d="M742.024 1277 945 1550.05 878.029 1803 642.021 1754.06 419 1511.05Z" stroke="#ED7D31" stroke-width="18.3333" stroke-linejoin="round" stroke-miterlimit="10" stroke-opacity="0.301961" fill="#ED7D31" fill-opacity="0.101961"/></g><g clip-path="url(#clip5)"><text fill="#7F7F7F" font-family="Calibri,Calibri_MSFontService,sans-serif" font-weight="400" font-size="41" transform="matrix(1 0 0 1 648.32 1630)">0,0</text></g><g clip-path="url(#clip6)"><text fill="#7F7F7F" font-family="Calibri,Calibri_MSFontService,sans-serif" font-weight="400" font-size="41" transform="matrix(1 0 0 1 648.32 1562)">0,2</text></g><g clip-path="url(#clip7)"><text fill="#7F7F7F" font-family="Calibri,Calibri_MSFontService,sans-serif" font-weight="400" font-size="41" transform="matrix(1 0 0 1 648.32 1494)">0,4</text></g><g clip-path="url(#clip8)"><text fill="#7F7F7F" font-family="Calibri,Calibri_MSFontService,sans-serif" font-weight="400" font-size="41" transform="matrix(1 0 0 1 648.32 1426)">0,6</text></g><g clip-path="url(#clip9)"><text fill="#7F7F7F" font-family="Calibri,Calibri_MSFontService,sans-serif" font-weight="400" font-size="41" transform="matrix(1 0 0 1 648.32 1358)">0,8</text></g><g clip-path="url(#clip10)"><text fill="#7F7F7F" font-family="Calibri,Calibri_MSFontService,sans-serif" font-weight="400" font-size="41" transform="matrix(1 0 0 1 648.32 1290)">1,0</text></g><g clip-path="url(#clip11)"><text font-family="Calibri,Calibri_MSFontService,sans-serif" font-weight="400" font-size="41" transform="matrix(1 0 0 1 630.972 1247)">Reißdehnung</text></g><g clip-path="url(#clip12)"><text font-family="Calibri,Calibri_MSFontService,sans-serif" font-weight="400" font-size="41" transform="matrix(1 0 0 1 1078.33 1519)">Kugeldruckhärte</text></g><g clip-path="url(#clip13)"><text font-family="Calibri,Calibri_MSFontService,sans-serif" font-weight="400" font-size="41" transform="matrix(1 0 0 1 949.943 1914)">Kriechmodul</text></g><g clip-path="url(#clip14)"><text font-family="Calibri,Calibri_MSFontService,sans-serif" font-weight="400" font-size="41" transform="matrix(1 0 0 1 287.594 1914)">Biegefestigkeit</text></g><g clip-path="url(#clip15)"><text font-family="Calibri,Calibri_MSFontService,sans-serif" font-weight="400" font-size="41" transform="matrix(1 0 0 1 297.786 1519)">Dichte</text></g><g clip-path="url(#clip16)"><text font-family="Calibri,Calibri_MSFontService,sans-serif" font-weight="400" font-size="73" transform="matrix(1 0 0 1 119.636 1220)">ABS vs. PC</text></g><g clip-path="url(#clip17)"><rect x="1506.5" y="1566.5" width="22" height="23" stroke="#4472C4" stroke-width="4.58333" stroke-linejoin="round" stroke-miterlimit="10" stroke-opacity="0.439216" fill="url(#fill18)"/></g><g clip-path="url(#clip19)"><text font-family="Calibri,Calibri_MSFontService,sans-serif" font-weight="400" font-size="41" transform="matrix(1 0 0 1 1538.33 1589)">ABS</text></g><g clip-path="url(#clip20)"><rect x="1506" y="1644" width="23" height="22" stroke="#ED7D31" stroke-width="16.0417" stroke-linejoin="round" stroke-miterlimit="10" stroke-opacity="0.301961" fill="#ED7D31" fill-opacity="0.101961"/></g><g clip-path="url(#clip21)"><text font-family="Calibri,Calibri_MSFontService,sans-serif" font-weight="400" font-size="41" transform="matrix(1 0 0 1 1538.33 1667)">PC</text></g><g clip-path="url(#clip22)"><path d="M741.525 2538.58 806.527 2585.58M806.527 2585.58 781.526 2661.59M781.526 2661.59 701.523 2661.59M701.523 2661.59 676.522 2585.58M676.522 2585.58 741.525 2538.58M741.525 2470.58 870.529 2564.58M870.529 2564.58 821.527 2716.59M821.527 2716.59 661.522 2716.59M661.522 2716.59 612.52 2564.58M612.52 2564.58 741.525 2470.58M741.525 2402.58 935.531 2543.58M935.531 2543.58 861.528 2771.59M861.528 2771.59 621.521 2771.59M621.521 2771.59 547.518 2543.58M547.518 2543.58 741.525 2402.58M741.525 2334.58 1000.53 2522.58M1000.53 2522.58 901.53 2826.59M901.53 2826.59 581.519 2826.59M581.519 2826.59 482.516 2522.58M482.516 2522.58 741.525 2334.58M741.525 2266.5 1064.5 2501.58M1064.5 2501.58 941.531 2881.5M941.531 2881.5 541.518 2881.5M541.518 2881.5 418.5 2501.58M418.5 2501.58 741.525 2266.5" stroke="#D9D9D9" stroke-width="3.4375" stroke-linejoin="round" stroke-miterlimit="10" fill="none"/></g><g clip-path="url(#clip23)"><path d="M741.525 2563.58 907.5 2552.58 848.528 2753.5 634.521 2753.5 461.5 2515.5Z" stroke="#4472C4" stroke-width="4.58333" stroke-linejoin="round" stroke-miterlimit="10" stroke-opacity="0.439216" fill="url(#fill24)"/></g><g clip-path="url(#clip25)"><path d="M741.024 2572.08 926 2546.08 841.028 2744.09 627.021 2763 453 2513Z" stroke="#5B9BD5" stroke-width="18.3333" stroke-linejoin="round" stroke-miterlimit="10" stroke-opacity="0.301961" fill="#5B9BD5" fill-opacity="0.101961"/></g><g clip-path="url(#clip26)"><text fill="#7F7F7F" font-family="Calibri,Calibri_MSFontService,sans-serif" font-weight="400" font-size="41" transform="matrix(1 0 0 1 647.598 2620)">0,0</text></g><g clip-path="url(#clip27)"><text fill="#7F7F7F" font-family="Calibri,Calibri_MSFontService,sans-serif" font-weight="400" font-size="41" transform="matrix(1 0 0 1 647.598 2552)">0,2</text></g><g clip-path="url(#clip28)"><text fill="#7F7F7F" font-family="Calibri,Calibri_MSFontService,sans-serif" font-weight="400" font-size="41" transform="matrix(1 0 0 1 647.598 2484)">0,4</text></g><g clip-path="url(#clip29)"><text fill="#7F7F7F" font-family="Calibri,Calibri_MSFontService,sans-serif" font-weight="400" font-size="41" transform="matrix(1 0 0 1 647.598 2416)">0,6</text></g><g clip-path="url(#clip30)"><text fill="#7F7F7F" font-family="Calibri,Calibri_MSFontService,sans-serif" font-weight="400" font-size="41" transform="matrix(1 0 0 1 647.598 2348)">0,8</text></g><g clip-path="url(#clip31)"><text fill="#7F7F7F" font-family="Calibri,Calibri_MSFontService,sans-serif" font-weight="400" font-size="41" transform="matrix(1 0 0 1 647.598 2280)">1,0</text></g><g clip-path="url(#clip32)"><text font-family="Calibri,Calibri_MSFontService,sans-serif" font-weight="400" font-size="41" transform="matrix(1 0 0 1 630.25 2237)">Reißdehnung</text></g><g clip-path="url(#clip33)"><text font-family="Calibri,Calibri_MSFontService,sans-serif" font-weight="400" font-size="41" transform="matrix(1 0 0 1 1077.61 2509)">Kugeldruckhärte</text></g><g clip-path="url(#clip34)"><text font-family="Calibri,Calibri_MSFontService,sans-serif" font-weight="400" font-size="41" transform="matrix(1 0 0 1 949.221 2904)">Kriechmodul</text></g><g clip-path="url(#clip35)"><text font-family="Calibri,Calibri_MSFontService,sans-serif" font-weight="400" font-size="41" transform="matrix(1 0 0 1 286.872 2904)">Biegefestigkeit</text></g><g clip-path="url(#clip36)"><text font-family="Calibri,Calibri_MSFontService,sans-serif" font-weight="400" font-size="41" transform="matrix(1 0 0 1 297.064 2509)">Dichte</text></g><g clip-path="url(#clip37)"><text font-family="Calibri,Calibri_MSFontService,sans-serif" font-weight="400" font-size="73" transform="matrix(1 0 0 1 119.636 2210)">ABS vs. ASA</text></g><g clip-path="url(#clip38)"><rect x="1504.5" y="2556.5" width="23" height="23" stroke="#4472C4" stroke-width="4.58333" stroke-linejoin="round" stroke-miterlimit="10" stroke-opacity="0.439216" fill="url(#fill39)"/></g><g clip-path="url(#clip40)"><text font-family="Calibri,Calibri_MSFontService,sans-serif" font-weight="400" font-size="41" transform="matrix(1 0 0 1 1536.88 2579)">ABS</text></g><g clip-path="url(#clip41)"><rect x="1505" y="2634" width="22" height="22" stroke="#5B9BD5" stroke-width="16.0417" stroke-linejoin="round" stroke-miterlimit="10" stroke-opacity="0.301961" fill="#5B9BD5" fill-opacity="0.101961"/></g><g clip-path="url(#clip42)"><text font-family="Calibri,Calibri_MSFontService,sans-serif" font-weight="400" font-size="41" transform="matrix(1 0 0 1 1536.88 2657)">ASA</text></g><g clip-path="url(#clip43)"><path d="M2235.57 1548.55 2300.58 1595.55M2300.58 1595.55 2275.57 1671.56M2275.57 1671.56 2195.57 1671.56M2195.57 1671.56 2170.57 1595.55M2170.57 1595.55 2235.57 1548.55M2235.57 1480.55 2364.58 1574.55M2364.58 1574.55 2315.58 1726.56M2315.58 1726.56 2155.57 1726.56M2155.57 1726.56 2106.57 1574.55M2106.57 1574.55 2235.57 1480.55M2235.57 1412.55 2429.58 1553.55M2429.58 1553.55 2355.58 1781.56M2355.58 1781.56 2115.57 1781.56M2115.57 1781.56 2041.57 1553.55M2041.57 1553.55 2235.57 1412.55M2235.57 1344.54 2493.58 1532.55M2493.58 1532.55 2395.58 1836.56M2395.58 1836.56 2075.57 1836.56M2075.57 1836.56 1976.57 1532.55M1976.57 1532.55 2235.57 1344.54M2235.57 1276.5 2558.5 1511.55M2558.5 1511.55 2435.58 1891.5M2435.58 1891.5 2035.57 1891.5M2035.57 1891.5 1912.5 1511.55M1912.5 1511.55 2235.57 1276.5" stroke="#D9D9D9" stroke-width="3.4375" stroke-linejoin="round" stroke-miterlimit="10" fill="none"/></g><g clip-path="url(#clip44)"><path d="M2235.57 1573.55 2401.5 1562.55 2342.58 1763.5 2128.57 1763.5 1955.5 1525.5Z" stroke="#4472C4" stroke-width="4.58333" stroke-linejoin="round" stroke-miterlimit="10" stroke-opacity="0.439216" fill="url(#fill45)"/></g><g clip-path="url(#clip46)"><path d="M2235.07 1604.05 2512 1526.05 2421.08 1872 2088.07 1819.06 1953 1524Z" stroke="#A5A5A5" stroke-width="18.3333" stroke-linejoin="round" stroke-miterlimit="10" stroke-opacity="0.301961" fill="#A5A5A5" fill-opacity="0.101961"/></g><g clip-path="url(#clip47)"><text fill="#7F7F7F" font-family="Calibri,Calibri_MSFontService,sans-serif" font-weight="400" font-size="41" transform="matrix(1 0 0 1 2141.57 1630)">0,0</text></g><g clip-path="url(#clip48)"><text fill="#7F7F7F" font-family="Calibri,Calibri_MSFontService,sans-serif" font-weight="400" font-size="41" transform="matrix(1 0 0 1 2141.57 1562)">0,2</text></g><g clip-path="url(#clip49)"><text fill="#7F7F7F" font-family="Calibri,Calibri_MSFontService,sans-serif" font-weight="400" font-size="41" transform="matrix(1 0 0 1 2141.57 1494)">0,4</text></g><g clip-path="url(#clip50)"><text fill="#7F7F7F" font-family="Calibri,Calibri_MSFontService,sans-serif" font-weight="400" font-size="41" transform="matrix(1 0 0 1 2141.57 1426)">0,6</text></g><g clip-path="url(#clip51)"><text fill="#7F7F7F" font-family="Calibri,Calibri_MSFontService,sans-serif" font-weight="400" font-size="41" transform="matrix(1 0 0 1 2141.57 1358)">0,8</text></g><g clip-path="url(#clip52)"><text fill="#7F7F7F" font-family="Calibri,Calibri_MSFontService,sans-serif" font-weight="400" font-size="41" transform="matrix(1 0 0 1 2141.57 1290)">1,0</text></g><g clip-path="url(#clip53)"><text font-family="Calibri,Calibri_MSFontService,sans-serif" font-weight="400" font-size="41" transform="matrix(1 0 0 1 2124.22 1247)">Reißdehnung</text></g><g clip-path="url(#clip54)"><text font-family="Calibri,Calibri_MSFontService,sans-serif" font-weight="400" font-size="41" transform="matrix(1 0 0 1 2571.58 1519)">Kugeldruckhärte</text></g><g clip-path="url(#clip55)"><text font-family="Calibri,Calibri_MSFontService,sans-serif" font-weight="400" font-size="41" transform="matrix(1 0 0 1 2443.19 1914)">Kriechmodul</text></g><g clip-path="url(#clip56)"><text font-family="Calibri,Calibri_MSFontService,sans-serif" font-weight="400" font-size="41" transform="matrix(1 0 0 1 1780.84 1914)">Biegefestigkeit</text></g><g clip-path="url(#clip57)"><text font-family="Calibri,Calibri_MSFontService,sans-serif" font-weight="400" font-size="41" transform="matrix(1 0 0 1 1791.04 1519)">Dichte</text></g><g clip-path="url(#clip58)"><text font-family="Calibri,Calibri_MSFontService,sans-serif" font-weight="400" font-size="73" transform="matrix(1 0 0 1 1612.89 1220)">ABS vs. PS</text></g><g clip-path="url(#clip59)"><rect x="2999.5" y="1566.5" width="22" height="23" stroke="#4472C4" stroke-width="4.58333" stroke-linejoin="round" stroke-miterlimit="10" stroke-opacity="0.439216" fill="url(#fill60)"/></g><g clip-path="url(#clip61)"><text font-family="Calibri,Calibri_MSFontService,sans-serif" font-weight="400" font-size="41" transform="matrix(1 0 0 1 3031.58 1589)">ABS</text></g><g clip-path="url(#clip62)"><rect x="2999" y="1644" width="23" height="22" stroke="#A5A5A5" stroke-width="16.0417" stroke-linejoin="round" stroke-miterlimit="10" stroke-opacity="0.301961" fill="#A5A5A5" fill-opacity="0.101961"/></g><g clip-path="url(#clip63)"><text font-family="Calibri,Calibri_MSFontService,sans-serif" font-weight="400" font-size="41" transform="matrix(1 0 0 1 3031.58 1667)">PS</text></g><g clip-path="url(#clip64)"><path d="M2233.57 2538.58 2297.58 2585.58M2297.58 2585.58 2273.57 2661.59M2273.57 2661.59 2193.57 2661.59M2193.57 2661.59 2168.57 2585.58M2168.57 2585.58 2233.57 2538.58M2233.57 2470.58 2362.58 2564.58M2362.58 2564.58 2313.58 2716.59M2313.58 2716.59 2153.57 2716.59M2153.57 2716.59 2104.57 2564.58M2104.57 2564.58 2233.57 2470.58M2233.57 2402.58 2427.58 2543.58M2427.58 2543.58 2353.58 2771.59M2353.58 2771.59 2113.57 2771.59M2113.57 2771.59 2039.57 2543.58M2039.57 2543.58 2233.57 2402.58M2233.57 2334.58 2491.58 2522.58M2491.58 2522.58 2393.58 2826.59M2393.58 2826.59 2073.57 2826.59M2073.57 2826.59 1974.57 2522.58M1974.57 2522.58 2233.57 2334.58M2233.57 2266.5 2556.5 2501.58M2556.5 2501.58 2433.58 2881.5M2433.58 2881.5 2033.57 2881.5M2033.57 2881.5 1910.5 2501.58M1910.5 2501.58 2233.57 2266.5" stroke="#D9D9D9" stroke-width="3.4375" stroke-linejoin="round" stroke-miterlimit="10" fill="none"/></g><g clip-path="url(#clip65)"><path d="M2233.57 2563.58 2399.5 2552.58 2340.58 2753.5 2126.57 2753.5 1953.5 2515.5Z" stroke="#4472C4" stroke-width="4.58333" stroke-linejoin="round" stroke-miterlimit="10" stroke-opacity="0.439216" fill="url(#fill66)"/></g><g clip-path="url(#clip67)"><path d="M2233.07 2594.09 2557 2501 2433.08 2881 2034.07 2881 1942 2512.08Z" stroke="#FFC000" stroke-width="18.3333" stroke-linejoin="round" stroke-miterlimit="10" stroke-opacity="0.301961" fill="#FFC000" fill-opacity="0.101961"/></g><g clip-path="url(#clip68)"><text fill="#7F7F7F" font-family="Calibri,Calibri_MSFontService,sans-serif" font-weight="400" font-size="41" transform="matrix(1 0 0 1 2139.47 2620)">0,0</text></g><g clip-path="url(#clip69)"><text fill="#7F7F7F" font-family="Calibri,Calibri_MSFontService,sans-serif" font-weight="400" font-size="41" transform="matrix(1 0 0 1 2139.47 2552)">0,2</text></g><g clip-path="url(#clip70)"><text fill="#7F7F7F" font-family="Calibri,Calibri_MSFontService,sans-serif" font-weight="400" font-size="41" transform="matrix(1 0 0 1 2139.47 2484)">0,4</text></g><g clip-path="url(#clip71)"><text fill="#7F7F7F" font-family="Calibri,Calibri_MSFontService,sans-serif" font-weight="400" font-size="41" transform="matrix(1 0 0 1 2139.47 2416)">0,6</text></g><g clip-path="url(#clip72)"><text fill="#7F7F7F" font-family="Calibri,Calibri_MSFontService,sans-serif" font-weight="400" font-size="41" transform="matrix(1 0 0 1 2139.47 2348)">0,8</text></g><g clip-path="url(#clip73)"><text fill="#7F7F7F" font-family="Calibri,Calibri_MSFontService,sans-serif" font-weight="400" font-size="41" transform="matrix(1 0 0 1 2139.47 2280)">1,0</text></g><g clip-path="url(#clip74)"><text font-family="Calibri,Calibri_MSFontService,sans-serif" font-weight="400" font-size="41" transform="matrix(1 0 0 1 2122.12 2237)">Reißdehnung</text></g><g clip-path="url(#clip75)"><text font-family="Calibri,Calibri_MSFontService,sans-serif" font-weight="400" font-size="41" transform="matrix(1 0 0 1 2569.48 2509)">Kugeldruckhärte</text></g><g clip-path="url(#clip76)"><text font-family="Calibri,Calibri_MSFontService,sans-serif" font-weight="400" font-size="41" transform="matrix(1 0 0 1 2441.1 2904)">Kriechmodul</text></g><g clip-path="url(#clip77)"><text font-family="Calibri,Calibri_MSFontService,sans-serif" font-weight="400" font-size="41" transform="matrix(1 0 0 1 1778.75 2904)">Biegefestigkeit</text></g><g clip-path="url(#clip78)"><text font-family="Calibri,Calibri_MSFontService,sans-serif" font-weight="400" font-size="41" transform="matrix(1 0 0 1 1788.94 2509)">Dichte</text></g><g clip-path="url(#clip79)"><text font-family="Calibri,Calibri_MSFontService,sans-serif" font-weight="400" font-size="73" transform="matrix(1 0 0 1 1612.89 2210)">ABS vs. SAN</text></g><g clip-path="url(#clip80)"><rect x="2995.5" y="2556.5" width="22" height="23" stroke="#4472C4" stroke-width="4.58333" stroke-linejoin="round" stroke-miterlimit="10" stroke-opacity="0.439216" fill="url(#fill81)"/></g><g clip-path="url(#clip82)"><text font-family="Calibri,Calibri_MSFontService,sans-serif" font-weight="400" font-size="41" transform="matrix(1 0 0 1 3027.38 2579)">ABS</text></g><g clip-path="url(#clip83)"><rect x="2995" y="2634" width="23" height="22" stroke="#FFC000" stroke-width="16.0417" stroke-linejoin="round" stroke-miterlimit="10" stroke-opacity="0.301961" fill="#FFC000" fill-opacity="0.101961"/></g><g clip-path="url(#clip84)"><text font-family="Calibri,Calibri_MSFontService,sans-serif" font-weight="400" font-size="41" transform="matrix(1 0 0 1 3027.38 2657)">SAN</text></g></g></svg>