<svg width="3143" height="1980" xmlns="http://www.w3.org/2000/svg" xmlns:xlink="http://www.w3.org/1999/xlink" overflow="hidden"><defs><clipPath id="clip0"><rect x="0" y="1122" width="3143" height="1980"/></clipPath><clipPath id="clip1"><rect x="0" y="1122" width="1650" height="990"/></clipPath><clipPath id="clip2"><rect x="402" y="1342" width="683" height="683"/></clipPath><radialGradient cx="788324" cy="709352" r="1.06049e+06" fx="788324" fy="709352" gradientUnits="userSpaceOnUse" spreadMethod="pad" id="fill3" gradientTransform="matrix(0.000360892 0 0 0.000360892 496.5 1407.5)"><stop offset="0" stop-color="#F6F8FC" stop-opacity="0"/><stop offset="0.69" stop-color="#4472C4" stop-opacity="0.360784"/><stop offset="1" stop-color="#4472C4" stop-opacity="0.360784"/></radialGradient><clipPath id="clip4"><rect x="402" y="1342" width="683" height="683"/></clipPath><clipPath id="clip5"><rect x="0" y="1122" width="1650" height="990"/></clipPath><clipPath id="clip6"><rect x="0" y="1122" width="1650" height="990"/></clipPath><clipPath id="clip7"><rect x="0" y="1122" width="1650" height="990"/></clipPath><clipPath id="clip8"><rect x="0" y="1122" width="1650" height="990"/></clipPath><clipPath id="clip9"><rect x="0" y="1122" width="1650" height="990"/></clipPath><clipPath id="clip10"><rect x="0" y="1122" width="1650" height="990"/></clipPath><clipPath id="clip11"><rect x="0" y="1122" width="1650" height="990"/></clipPath><clipPath id="clip12"><rect x="0" y="1122" width="1650" height="990"/></clipPath><clipPath id="clip13"><rect x="0" y="1122" width="1650" height="990"/></clipPath><clipPath id="clip14"><rect x="0" y="1122" width="1650" height="990"/></clipPath><clipPath id="clip15"><rect x="0" y="1122" width="1650" height="990"/></clipPath><clipPath id="clip16"><rect x="0" y="1122" width="1650" height="990"/></clipPath><clipPath id="clip17"><rect x="0" y="1122" width="1650" height="990"/></clipPath><clipPath id="clip18"><rect x="0" y="1122" width="1650" height="990"/></clipPath><clipPath id="clip19"><rect x="0" y="1122" width="1650" height="990"/></clipPath><clipPath id="clip20"><rect x="0" y="1122" width="1650" height="990"/></clipPath><radialGradient cx="30480" cy="31865.5" r="44095.8" fx="30480" fy="31865.5" gradientUnits="userSpaceOnUse" spreadMethod="pad" id="fill21" gradientTransform="matrix(0.000360892 0 0 0.000360892 1506.5 1632.5)"><stop offset="0" stop-color="#F6F8FC" stop-opacity="0"/><stop offset="0.69" stop-color="#4472C4" stop-opacity="0.360784"/><stop offset="1" stop-color="#4472C4" stop-opacity="0.360784"/></radialGradient><clipPath id="clip22"><rect x="0" y="1122" width="1650" height="990"/></clipPath><clipPath id="clip23"><rect x="0" y="1122" width="1650" height="990"/></clipPath><clipPath id="clip24"><rect x="0" y="1122" width="1650" height="990"/></clipPath><clipPath id="clip25"><rect x="1493" y="1122" width="1650" height="990"/></clipPath><clipPath id="clip26"><rect x="1895" y="1342" width="683" height="683"/></clipPath><radialGradient cx="788323" cy="709352" r="1.06049e+06" fx="788324" fy="709352" gradientUnits="userSpaceOnUse" spreadMethod="pad" id="fill27" gradientTransform="matrix(0.000360892 0 0 0.000360892 1989.5 1407.5)"><stop offset="0" stop-color="#F6F8FC" stop-opacity="0"/><stop offset="0.69" stop-color="#4472C4" stop-opacity="0.360784"/><stop offset="1" stop-color="#4472C4" stop-opacity="0.360784"/></radialGradient><clipPath id="clip28"><rect x="1895" y="1342" width="683" height="683"/></clipPath><clipPath id="clip29"><rect x="1493" y="1122" width="1650" height="990"/></clipPath><clipPath id="clip30"><rect x="1493" y="1122" width="1650" height="990"/></clipPath><clipPath id="clip31"><rect x="1493" y="1122" width="1650" height="990"/></clipPath><clipPath id="clip32"><rect x="1493" y="1122" width="1650" height="990"/></clipPath><clipPath id="clip33"><rect x="1493" y="1122" width="1650" height="990"/></clipPath><clipPath id="clip34"><rect x="1493" y="1122" width="1650" height="990"/></clipPath><clipPath id="clip35"><rect x="1493" y="1122" width="1650" height="990"/></clipPath><clipPath id="clip36"><rect x="1493" y="1122" width="1650" height="990"/></clipPath><clipPath id="clip37"><rect x="1493" y="1122" width="1650" height="990"/></clipPath><clipPath id="clip38"><rect x="1493" y="1122" width="1650" height="990"/></clipPath><clipPath id="clip39"><rect x="1493" y="1122" width="1650" height="990"/></clipPath><clipPath id="clip40"><rect x="1493" y="1122" width="1650" height="990"/></clipPath><clipPath id="clip41"><rect x="1493" y="1122" width="1650" height="990"/></clipPath><clipPath id="clip42"><rect x="1493" y="1122" width="1650" height="990"/></clipPath><clipPath id="clip43"><rect x="1493" y="1122" width="1650" height="990"/></clipPath><clipPath id="clip44"><rect x="1493" y="1122" width="1650" height="990"/></clipPath><radialGradient cx="30480" cy="31865.5" r="44095.8" fx="30480" fy="31865.5" gradientUnits="userSpaceOnUse" spreadMethod="pad" id="fill45" gradientTransform="matrix(0.000360892 0 0 0.000360892 2999.5 1632.5)"><stop offset="0" stop-color="#F6F8FC" stop-opacity="0"/><stop offset="0.69" stop-color="#4472C4" stop-opacity="0.360784"/><stop offset="1" stop-color="#4472C4" stop-opacity="0.360784"/></radialGradient><clipPath id="clip46"><rect x="1493" y="1122" width="1650" height="990"/></clipPath><clipPath id="clip47"><rect x="1493" y="1122" width="1650" height="990"/></clipPath><clipPath id="clip48"><rect x="1493" y="1122" width="1650" height="990"/></clipPath><clipPath id="clip49"><rect x="0" y="2112" width="1650" height="990"/></clipPath><clipPath id="clip50"><rect x="401" y="2332" width="683" height="683"/></clipPath><radialGradient cx="788324" cy="709352" r="1.06049e+06" fx="788324" fy="709352" gradientUnits="userSpaceOnUse" spreadMethod="pad" id="fill51" gradientTransform="matrix(0.000360892 0 0 0.000360892 495.5 2397.5)"><stop offset="0" stop-color="#F6F8FC" stop-opacity="0"/><stop offset="0.69" stop-color="#4472C4" stop-opacity="0.360784"/><stop offset="1" stop-color="#4472C4" stop-opacity="0.360784"/></radialGradient><clipPath id="clip52"><rect x="401" y="2332" width="683" height="683"/></clipPath><clipPath id="clip53"><rect x="0" y="2112" width="1650" height="990"/></clipPath><clipPath id="clip54"><rect x="0" y="2112" width="1650" height="990"/></clipPath><clipPath id="clip55"><rect x="0" y="2112" width="1650" height="990"/></clipPath><clipPath id="clip56"><rect x="0" y="2112" width="1650" height="990"/></clipPath><clipPath id="clip57"><rect x="0" y="2112" width="1650" height="990"/></clipPath><clipPath id="clip58"><rect x="0" y="2112" width="1650" height="990"/></clipPath><clipPath id="clip59"><rect x="0" y="2112" width="1650" height="990"/></clipPath><clipPath id="clip60"><rect x="0" y="2112" width="1650" height="990"/></clipPath><clipPath id="clip61"><rect x="0" y="2112" width="1650" height="990"/></clipPath><clipPath id="clip62"><rect x="0" y="2112" width="1650" height="990"/></clipPath><clipPath id="clip63"><rect x="0" y="2112" width="1650" height="990"/></clipPath><clipPath id="clip64"><rect x="0" y="2112" width="1650" height="990"/></clipPath><clipPath id="clip65"><rect x="0" y="2112" width="1650" height="990"/></clipPath><clipPath id="clip66"><rect x="0" y="2112" width="1650" height="990"/></clipPath><clipPath id="clip67"><rect x="0" y="2112" width="1650" height="990"/></clipPath><clipPath id="clip68"><rect x="0" y="2112" width="1650" height="990"/></clipPath><radialGradient cx="31865.5" cy="31865.5" r="45064.6" fx="31865.5" fy="31865.5" gradientUnits="userSpaceOnUse" spreadMethod="pad" id="fill69" gradientTransform="matrix(0.000360892 0 0 0.000360892 1504.5 2622.5)"><stop offset="0" stop-color="#F6F8FC" stop-opacity="0"/><stop offset="0.69" stop-color="#4472C4" stop-opacity="0.360784"/><stop offset="1" stop-color="#4472C4" stop-opacity="0.360784"/></radialGradient><clipPath id="clip70"><rect x="0" y="2112" width="1650" height="990"/></clipPath><clipPath id="clip71"><rect x="0" y="2112" width="1650" height="990"/></clipPath><clipPath id="clip72"><rect x="0" y="2112" width="1650" height="990"/></clipPath><clipPath id="clip73"><rect x="1493" y="2112" width="1650" height="990"/></clipPath><clipPath id="clip74"><rect x="1893" y="2332" width="683" height="683"/></clipPath><radialGradient cx="788323" cy="709352" r="1.06049e+06" fx="788324" fy="709352" gradientUnits="userSpaceOnUse" spreadMethod="pad" id="fill75" gradientTransform="matrix(0.000360892 0 0 0.000360892 1987.5 2397.5)"><stop offset="0" stop-color="#F6F8FC" stop-opacity="0"/><stop offset="0.69" stop-color="#4472C4" stop-opacity="0.360784"/><stop offset="1" stop-color="#4472C4" stop-opacity="0.360784"/></radialGradient><clipPath id="clip76"><rect x="1893" y="2332" width="683" height="683"/></clipPath><clipPath id="clip77"><rect x="1493" y="2112" width="1650" height="990"/></clipPath><clipPath id="clip78"><rect x="1493" y="2112" width="1650" height="990"/></clipPath><clipPath id="clip79"><rect x="1493" y="2112" width="1650" height="990"/></clipPath><clipPath id="clip80"><rect x="1493" y="2112" width="1650" height="990"/></clipPath><clipPath id="clip81"><rect x="1493" y="2112" width="1650" height="990"/></clipPath><clipPath id="clip82"><rect x="1493" y="2112" width="1650" height="990"/></clipPath><clipPath id="clip83"><rect x="1493" y="2112" width="1650" height="990"/></clipPath><clipPath id="clip84"><rect x="1493" y="2112" width="1650" height="990"/></clipPath><clipPath id="clip85"><rect x="1493" y="2112" width="1650" height="990"/></clipPath><clipPath id="clip86"><rect x="1493" y="2112" width="1650" height="990"/></clipPath><clipPath id="clip87"><rect x="1493" y="2112" width="1650" height="990"/></clipPath><clipPath id="clip88"><rect x="1493" y="2112" width="1650" height="990"/></clipPath><clipPath id="clip89"><rect x="1493" y="2112" width="1650" height="990"/></clipPath><clipPath id="clip90"><rect x="1493" y="2112" width="1650" height="990"/></clipPath><clipPath id="clip91"><rect x="1493" y="2112" width="1650" height="990"/></clipPath><clipPath id="clip92"><rect x="1493" y="2112" width="1650" height="990"/></clipPath><radialGradient cx="30480" cy="31865.5" r="44095.8" fx="30480" fy="31865.5" gradientUnits="userSpaceOnUse" spreadMethod="pad" id="fill93" gradientTransform="matrix(0.000360892 0 0 0.000360892 2995.5 2622.5)"><stop offset="0" stop-color="#F6F8FC" stop-opacity="0"/><stop offset="0.69" stop-color="#4472C4" stop-opacity="0.360784"/><stop offset="1" stop-color="#4472C4" stop-opacity="0.360784"/></radialGradient><clipPath id="clip94"><rect x="1493" y="2112" width="1650" height="990"/></clipPath><clipPath id="clip95"><rect x="1493" y="2112" width="1650" height="990"/></clipPath><clipPath id="clip96"><rect x="1493" y="2112" width="1650" height="990"/></clipPath></defs><g clip-path="url(#clip0)" transform="matrix(1 0 0 1 0 -1122)"><g clip-path="url(#clip1)"><path d="M742.525 1614.55 806.527 1661.55M806.527 1661.55 782.526 1737.56M782.526 1737.56 702.523 1737.56M702.523 1737.56 677.522 1661.55M677.522 1661.55 742.525 1614.55M742.525 1546.55 871.529 1640.55M871.529 1640.55 822.527 1792.56M822.527 1792.56 662.522 1792.56M662.522 1792.56 612.52 1640.55M612.52 1640.55 742.525 1546.55M742.525 1478.55 936.531 1619.55M936.531 1619.55 862.528 1847.56M862.528 1847.56 622.521 1847.56M622.521 1847.56 548.518 1619.55M548.518 1619.55 742.525 1478.55M742.525 1410.55 1000.53 1598.55M1000.53 1598.55 901.53 1902.56M901.53 1902.56 582.519 1902.56M582.519 1902.56 483.516 1598.55M483.516 1598.55 742.525 1410.55M742.525 1342.5 1065.5 1577.55M1065.5 1577.55 941.531 1957.5M941.531 1957.5 542.518 1957.5M542.518 1957.5 419.5 1577.55M419.5 1577.55 742.525 1342.5" stroke="#D9D9D9" stroke-width="3.4375" stroke-linejoin="round" stroke-miterlimit="10" fill="none"/></g><g clip-path="url(#clip2)"><path d="M742.525 1407.5 1065.5 1577.55 914.53 1919.5 593.52 1886.56 496.5 1602.55Z" stroke="#4472C4" stroke-width="4.58333" stroke-linejoin="round" stroke-miterlimit="10" stroke-opacity="0.439216" fill="url(#fill3)"/></g><g clip-path="url(#clip4)"><path d="M742.024 1343 1012 1595.05 860.028 1845.06 542.018 1957 419 1577.05Z" stroke="#ED7D31" stroke-width="18.3333" stroke-linejoin="round" stroke-miterlimit="10" stroke-opacity="0.301961" fill="#ED7D31" fill-opacity="0.101961"/></g><g clip-path="url(#clip5)"><text fill="#7F7F7F" font-family="Calibri,Calibri_MSFontService,sans-serif" font-weight="400" font-size="41" transform="matrix(1 0 0 1 648.32 1696)">0,0</text></g><g clip-path="url(#clip6)"><text fill="#7F7F7F" font-family="Calibri,Calibri_MSFontService,sans-serif" font-weight="400" font-size="41" transform="matrix(1 0 0 1 648.32 1628)">0,2</text></g><g clip-path="url(#clip7)"><text fill="#7F7F7F" font-family="Calibri,Calibri_MSFontService,sans-serif" font-weight="400" font-size="41" transform="matrix(1 0 0 1 648.32 1560)">0,4</text></g><g clip-path="url(#clip8)"><text fill="#7F7F7F" font-family="Calibri,Calibri_MSFontService,sans-serif" font-weight="400" font-size="41" transform="matrix(1 0 0 1 648.32 1492)">0,6</text></g><g clip-path="url(#clip9)"><text fill="#7F7F7F" font-family="Calibri,Calibri_MSFontService,sans-serif" font-weight="400" font-size="41" transform="matrix(1 0 0 1 648.32 1424)">0,8</text></g><g clip-path="url(#clip10)"><text fill="#7F7F7F" font-family="Calibri,Calibri_MSFontService,sans-serif" font-weight="400" font-size="41" transform="matrix(1 0 0 1 648.32 1356)">1,0</text></g><g clip-path="url(#clip11)"><text font-family="Calibri,Calibri_MSFontService,sans-serif" font-weight="400" font-size="41" transform="matrix(1 0 0 1 580.681 1313)">Wärmeleitfähigkeit</text></g><g clip-path="url(#clip12)"><text font-family="Calibri,Calibri_MSFontService,sans-serif" font-weight="400" font-size="41" transform="matrix(1 0 0 1 1173.1 1560)">Spez.</text></g><g clip-path="url(#clip13)"><text font-family="Calibri,Calibri_MSFontService,sans-serif" font-weight="400" font-size="41" transform="matrix(1 0 0 1 1078.33 1610)">Wärmekapazität</text></g><g clip-path="url(#clip14)"><text font-family="Calibri,Calibri_MSFontService,sans-serif" font-weight="400" font-size="41" transform="matrix(1 0 0 1 949.943 1955)">Längenausdehnungs</text></g><g clip-path="url(#clip15)"><text font-family="Calibri,Calibri_MSFontService,sans-serif" font-weight="400" font-size="41" transform="matrix(1 0 0 1 1072.87 2005)">koeff.</text></g><g clip-path="url(#clip16)"><text font-family="Calibri,Calibri_MSFontService,sans-serif" font-weight="400" font-size="41" transform="matrix(1 0 0 1 297.769 1980)">Schmelztemp.</text></g><g clip-path="url(#clip17)"><text font-family="Calibri,Calibri_MSFontService,sans-serif" font-weight="400" font-size="41" transform="matrix(1 0 0 1 218.196 1560)">Max. Temp</text></g><g clip-path="url(#clip18)"><text font-family="Calibri,Calibri_MSFontService,sans-serif" font-weight="400" font-size="41" transform="matrix(1 0 0 1 229.208 1610)">dauerhaft</text></g><g clip-path="url(#clip19)"><text font-family="Calibri,Calibri_MSFontService,sans-serif" font-weight="400" font-size="73" transform="matrix(1 0 0 1 133.386 1286)">ABS vs. PC</text></g><g clip-path="url(#clip20)"><rect x="1506.5" y="1632.5" width="22" height="23" stroke="#4472C4" stroke-width="4.58333" stroke-linejoin="round" stroke-miterlimit="10" stroke-opacity="0.439216" fill="url(#fill21)"/></g><g clip-path="url(#clip22)"><text font-family="Calibri,Calibri_MSFontService,sans-serif" font-weight="400" font-size="41" transform="matrix(1 0 0 1 1538.33 1655)">ABS</text></g><g clip-path="url(#clip23)"><rect x="1506" y="1710" width="23" height="22" stroke="#ED7D31" stroke-width="16.0417" stroke-linejoin="round" stroke-miterlimit="10" stroke-opacity="0.301961" fill="#ED7D31" fill-opacity="0.101961"/></g><g clip-path="url(#clip24)"><text font-family="Calibri,Calibri_MSFontService,sans-serif" font-weight="400" font-size="41" transform="matrix(1 0 0 1 1538.33 1733)">PC</text></g><g clip-path="url(#clip25)"><path d="M2235.57 1614.55 2300.58 1661.55M2300.58 1661.55 2275.57 1737.56M2275.57 1737.56 2195.57 1737.56M2195.57 1737.56 2170.57 1661.55M2170.57 1661.55 2235.57 1614.55M2235.57 1546.55 2364.58 1640.55M2364.58 1640.55 2315.58 1792.56M2315.58 1792.56 2155.57 1792.56M2155.57 1792.56 2106.57 1640.55M2106.57 1640.55 2235.57 1546.55M2235.57 1478.55 2429.58 1619.55M2429.58 1619.55 2355.58 1847.56M2355.58 1847.56 2115.57 1847.56M2115.57 1847.56 2041.57 1619.55M2041.57 1619.55 2235.57 1478.55M2235.57 1410.55 2493.58 1598.55M2493.58 1598.55 2395.58 1902.56M2395.58 1902.56 2075.57 1902.56M2075.57 1902.56 1976.57 1598.55M1976.57 1598.55 2235.57 1410.55M2235.57 1342.5 2558.5 1577.55M2558.5 1577.55 2435.58 1957.5M2435.58 1957.5 2035.57 1957.5M2035.57 1957.5 1912.5 1577.55M1912.5 1577.55 2235.57 1342.5" stroke="#D9D9D9" stroke-width="3.4375" stroke-linejoin="round" stroke-miterlimit="10" fill="none"/></g><g clip-path="url(#clip26)"><path d="M2235.57 1407.5 2558.5 1577.55 2407.58 1919.5 2086.57 1886.56 1989.5 1602.55Z" stroke="#4472C4" stroke-width="4.58333" stroke-linejoin="round" stroke-miterlimit="10" stroke-opacity="0.439216" fill="url(#fill27)"/></g><g clip-path="url(#clip28)"><path d="M2235.07 1407 2536 1585.05 2381.08 1882 2100.07 1868.06 2054 1624.05Z" stroke="#A5A5A5" stroke-width="18.3333" stroke-linejoin="round" stroke-miterlimit="10" stroke-opacity="0.301961" fill="#A5A5A5" fill-opacity="0.101961"/></g><g clip-path="url(#clip29)"><text fill="#7F7F7F" font-family="Calibri,Calibri_MSFontService,sans-serif" font-weight="400" font-size="41" transform="matrix(1 0 0 1 2141.57 1696)">0,0</text></g><g clip-path="url(#clip30)"><text fill="#7F7F7F" font-family="Calibri,Calibri_MSFontService,sans-serif" font-weight="400" font-size="41" transform="matrix(1 0 0 1 2141.57 1628)">0,2</text></g><g clip-path="url(#clip31)"><text fill="#7F7F7F" font-family="Calibri,Calibri_MSFontService,sans-serif" font-weight="400" font-size="41" transform="matrix(1 0 0 1 2141.57 1560)">0,4</text></g><g clip-path="url(#clip32)"><text fill="#7F7F7F" font-family="Calibri,Calibri_MSFontService,sans-serif" font-weight="400" font-size="41" transform="matrix(1 0 0 1 2141.57 1492)">0,6</text></g><g clip-path="url(#clip33)"><text fill="#7F7F7F" font-family="Calibri,Calibri_MSFontService,sans-serif" font-weight="400" font-size="41" transform="matrix(1 0 0 1 2141.57 1424)">0,8</text></g><g clip-path="url(#clip34)"><text fill="#7F7F7F" font-family="Calibri,Calibri_MSFontService,sans-serif" font-weight="400" font-size="41" transform="matrix(1 0 0 1 2141.57 1356)">1,0</text></g><g clip-path="url(#clip35)"><text font-family="Calibri,Calibri_MSFontService,sans-serif" font-weight="400" font-size="41" transform="matrix(1 0 0 1 2073.93 1313)">Wärmeleitfähigkeit</text></g><g clip-path="url(#clip36)"><text font-family="Calibri,Calibri_MSFontService,sans-serif" font-weight="400" font-size="41" transform="matrix(1 0 0 1 2666.35 1560)">Spez.</text></g><g clip-path="url(#clip37)"><text font-family="Calibri,Calibri_MSFontService,sans-serif" font-weight="400" font-size="41" transform="matrix(1 0 0 1 2571.58 1610)">Wärmekapazität</text></g><g clip-path="url(#clip38)"><text font-family="Calibri,Calibri_MSFontService,sans-serif" font-weight="400" font-size="41" transform="matrix(1 0 0 1 2443.19 1955)">Längenausdehnungs</text></g><g clip-path="url(#clip39)"><text font-family="Calibri,Calibri_MSFontService,sans-serif" font-weight="400" font-size="41" transform="matrix(1 0 0 1 2566.12 2005)">koeff.</text></g><g clip-path="url(#clip40)"><text font-family="Calibri,Calibri_MSFontService,sans-serif" font-weight="400" font-size="41" transform="matrix(1 0 0 1 1791.02 1980)">Schmelztemp.</text></g><g clip-path="url(#clip41)"><text font-family="Calibri,Calibri_MSFontService,sans-serif" font-weight="400" font-size="41" transform="matrix(1 0 0 1 1711.45 1560)">Max. Temp</text></g><g clip-path="url(#clip42)"><text font-family="Calibri,Calibri_MSFontService,sans-serif" font-weight="400" font-size="41" transform="matrix(1 0 0 1 1722.46 1610)">dauerhaft</text></g><g clip-path="url(#clip43)"><text font-family="Calibri,Calibri_MSFontService,sans-serif" font-weight="400" font-size="73" transform="matrix(1 0 0 1 1626.64 1286)">ABS vs. PS</text></g><g clip-path="url(#clip44)"><rect x="2999.5" y="1632.5" width="22" height="23" stroke="#4472C4" stroke-width="4.58333" stroke-linejoin="round" stroke-miterlimit="10" stroke-opacity="0.439216" fill="url(#fill45)"/></g><g clip-path="url(#clip46)"><text font-family="Calibri,Calibri_MSFontService,sans-serif" font-weight="400" font-size="41" transform="matrix(1 0 0 1 3031.58 1655)">ABS</text></g><g clip-path="url(#clip47)"><rect x="2999" y="1710" width="23" height="22" stroke="#A5A5A5" stroke-width="16.0417" stroke-linejoin="round" stroke-miterlimit="10" stroke-opacity="0.301961" fill="#A5A5A5" fill-opacity="0.101961"/></g><g clip-path="url(#clip48)"><text font-family="Calibri,Calibri_MSFontService,sans-serif" font-weight="400" font-size="41" transform="matrix(1 0 0 1 3031.58 1733)">PS</text></g><g clip-path="url(#clip49)"><path d="M741.525 2604.59 806.527 2651.59M806.527 2651.59 781.526 2727.59M781.526 2727.59 701.523 2727.59M701.523 2727.59 676.522 2651.59M676.522 2651.59 741.525 2604.59M741.525 2536.58 870.529 2630.59M870.529 2630.59 821.527 2782.59M821.527 2782.59 661.522 2782.59M661.522 2782.59 612.52 2630.59M612.52 2630.59 741.525 2536.58M741.525 2468.58 935.531 2609.59M935.531 2609.59 861.528 2837.59M861.528 2837.59 621.521 2837.59M621.521 2837.59 547.518 2609.59M547.518 2609.59 741.525 2468.58M741.525 2400.58 1000.53 2588.58M1000.53 2588.58 901.53 2892.59M901.53 2892.59 581.519 2892.59M581.519 2892.59 482.516 2588.58M482.516 2588.58 741.525 2400.58M741.525 2332.5 1064.5 2567.58M1064.5 2567.58 941.531 2947.5M941.531 2947.5 541.518 2947.5M541.518 2947.5 418.5 2567.58M418.5 2567.58 741.525 2332.5" stroke="#D9D9D9" stroke-width="3.4375" stroke-linejoin="round" stroke-miterlimit="10" fill="none"/></g><g clip-path="url(#clip50)"><path d="M741.525 2397.5 1064.5 2567.58 913.53 2909.5 593.52 2876.59 495.5 2592.59Z" stroke="#4472C4" stroke-width="4.58333" stroke-linejoin="round" stroke-miterlimit="10" stroke-opacity="0.439216" fill="url(#fill51)"/></g><g clip-path="url(#clip52)"><path d="M741.024 2397 1042 2575.08 941.031 2947 607.02 2858.09 509 2597.09Z" stroke="#5B9BD5" stroke-width="18.3333" stroke-linejoin="round" stroke-miterlimit="10" stroke-opacity="0.301961" fill="#5B9BD5" fill-opacity="0.101961"/></g><g clip-path="url(#clip53)"><text fill="#7F7F7F" font-family="Calibri,Calibri_MSFontService,sans-serif" font-weight="400" font-size="41" transform="matrix(1 0 0 1 647.598 2686)">0,0</text></g><g clip-path="url(#clip54)"><text fill="#7F7F7F" font-family="Calibri,Calibri_MSFontService,sans-serif" font-weight="400" font-size="41" transform="matrix(1 0 0 1 647.598 2618)">0,2</text></g><g clip-path="url(#clip55)"><text fill="#7F7F7F" font-family="Calibri,Calibri_MSFontService,sans-serif" font-weight="400" font-size="41" transform="matrix(1 0 0 1 647.598 2550)">0,4</text></g><g clip-path="url(#clip56)"><text fill="#7F7F7F" font-family="Calibri,Calibri_MSFontService,sans-serif" font-weight="400" font-size="41" transform="matrix(1 0 0 1 647.598 2482)">0,6</text></g><g clip-path="url(#clip57)"><text fill="#7F7F7F" font-family="Calibri,Calibri_MSFontService,sans-serif" font-weight="400" font-size="41" transform="matrix(1 0 0 1 647.598 2414)">0,8</text></g><g clip-path="url(#clip58)"><text fill="#7F7F7F" font-family="Calibri,Calibri_MSFontService,sans-serif" font-weight="400" font-size="41" transform="matrix(1 0 0 1 647.598 2346)">1,0</text></g><g clip-path="url(#clip59)"><text font-family="Calibri,Calibri_MSFontService,sans-serif" font-weight="400" font-size="41" transform="matrix(1 0 0 1 579.959 2303)">Wärmeleitfähigkeit</text></g><g clip-path="url(#clip60)"><text font-family="Calibri,Calibri_MSFontService,sans-serif" font-weight="400" font-size="41" transform="matrix(1 0 0 1 1172.38 2550)">Spez.</text></g><g clip-path="url(#clip61)"><text font-family="Calibri,Calibri_MSFontService,sans-serif" font-weight="400" font-size="41" transform="matrix(1 0 0 1 1077.61 2600)">Wärmekapazität</text></g><g clip-path="url(#clip62)"><text font-family="Calibri,Calibri_MSFontService,sans-serif" font-weight="400" font-size="41" transform="matrix(1 0 0 1 949.221 2945)">Längenausdehnungs</text></g><g clip-path="url(#clip63)"><text font-family="Calibri,Calibri_MSFontService,sans-serif" font-weight="400" font-size="41" transform="matrix(1 0 0 1 1072.15 2995)">koeff.</text></g><g clip-path="url(#clip64)"><text font-family="Calibri,Calibri_MSFontService,sans-serif" font-weight="400" font-size="41" transform="matrix(1 0 0 1 297.048 2970)">Schmelztemp.</text></g><g clip-path="url(#clip65)"><text font-family="Calibri,Calibri_MSFontService,sans-serif" font-weight="400" font-size="41" transform="matrix(1 0 0 1 217.474 2550)">Max. Temp</text></g><g clip-path="url(#clip66)"><text font-family="Calibri,Calibri_MSFontService,sans-serif" font-weight="400" font-size="41" transform="matrix(1 0 0 1 228.486 2600)">dauerhaft</text></g><g clip-path="url(#clip67)"><text font-family="Calibri,Calibri_MSFontService,sans-serif" font-weight="400" font-size="73" transform="matrix(1 0 0 1 133.386 2276)">ABS vs. ASA</text></g><g clip-path="url(#clip68)"><rect x="1504.5" y="2622.5" width="23" height="23" stroke="#4472C4" stroke-width="4.58333" stroke-linejoin="round" stroke-miterlimit="10" stroke-opacity="0.439216" fill="url(#fill69)"/></g><g clip-path="url(#clip70)"><text font-family="Calibri,Calibri_MSFontService,sans-serif" font-weight="400" font-size="41" transform="matrix(1 0 0 1 1536.88 2645)">ABS</text></g><g clip-path="url(#clip71)"><rect x="1505" y="2700" width="22" height="22" stroke="#5B9BD5" stroke-width="16.0417" stroke-linejoin="round" stroke-miterlimit="10" stroke-opacity="0.301961" fill="#5B9BD5" fill-opacity="0.101961"/></g><g clip-path="url(#clip72)"><text font-family="Calibri,Calibri_MSFontService,sans-serif" font-weight="400" font-size="41" transform="matrix(1 0 0 1 1536.88 2723)">ASA</text></g><g clip-path="url(#clip73)"><path d="M2233.57 2604.59 2297.58 2651.59M2297.58 2651.59 2273.57 2727.59M2273.57 2727.59 2193.57 2727.59M2193.57 2727.59 2168.57 2651.59M2168.57 2651.59 2233.57 2604.59M2233.57 2536.58 2362.58 2630.59M2362.58 2630.59 2313.58 2782.59M2313.58 2782.59 2153.57 2782.59M2153.57 2782.59 2104.57 2630.59M2104.57 2630.59 2233.57 2536.58M2233.57 2468.58 2427.58 2609.59M2427.58 2609.59 2353.58 2837.59M2353.58 2837.59 2113.57 2837.59M2113.57 2837.59 2039.57 2609.59M2039.57 2609.59 2233.57 2468.58M2233.57 2400.58 2491.58 2588.58M2491.58 2588.58 2393.58 2892.59M2393.58 2892.59 2073.57 2892.59M2073.57 2892.59 1974.57 2588.58M1974.57 2588.58 2233.57 2400.58M2233.57 2332.5 2556.5 2567.58M2556.5 2567.58 2433.58 2947.5M2433.58 2947.5 2033.57 2947.5M2033.57 2947.5 1910.5 2567.58M1910.5 2567.58 2233.57 2332.5" stroke="#D9D9D9" stroke-width="3.4375" stroke-linejoin="round" stroke-miterlimit="10" fill="none"/></g><g clip-path="url(#clip74)"><path d="M2233.57 2397.5 2556.5 2567.58 2405.58 2909.5 2084.57 2876.59 1987.5 2592.59Z" stroke="#4472C4" stroke-width="4.58333" stroke-linejoin="round" stroke-miterlimit="10" stroke-opacity="0.439216" fill="url(#fill75)"/></g><g clip-path="url(#clip76)"><path d="M2233.07 2397 2510 2582.08 2360.08 2847.09 2090.07 2869 2014 2601.09Z" stroke="#FFC000" stroke-width="18.3333" stroke-linejoin="round" stroke-miterlimit="10" stroke-opacity="0.301961" fill="#FFC000" fill-opacity="0.101961"/></g><g clip-path="url(#clip77)"><text fill="#7F7F7F" font-family="Calibri,Calibri_MSFontService,sans-serif" font-weight="400" font-size="41" transform="matrix(1 0 0 1 2139.47 2686)">0,0</text></g><g clip-path="url(#clip78)"><text fill="#7F7F7F" font-family="Calibri,Calibri_MSFontService,sans-serif" font-weight="400" font-size="41" transform="matrix(1 0 0 1 2139.47 2618)">0,2</text></g><g clip-path="url(#clip79)"><text fill="#7F7F7F" font-family="Calibri,Calibri_MSFontService,sans-serif" font-weight="400" font-size="41" transform="matrix(1 0 0 1 2139.47 2550)">0,4</text></g><g clip-path="url(#clip80)"><text fill="#7F7F7F" font-family="Calibri,Calibri_MSFontService,sans-serif" font-weight="400" font-size="41" transform="matrix(1 0 0 1 2139.47 2482)">0,6</text></g><g clip-path="url(#clip81)"><text fill="#7F7F7F" font-family="Calibri,Calibri_MSFontService,sans-serif" font-weight="400" font-size="41" transform="matrix(1 0 0 1 2139.47 2414)">0,8</text></g><g clip-path="url(#clip82)"><text fill="#7F7F7F" font-family="Calibri,Calibri_MSFontService,sans-serif" font-weight="400" font-size="41" transform="matrix(1 0 0 1 2139.47 2346)">1,0</text></g><g clip-path="url(#clip83)"><text font-family="Calibri,Calibri_MSFontService,sans-serif" font-weight="400" font-size="41" transform="matrix(1 0 0 1 2071.83 2303)">Wärmeleitfähigkeit</text></g><g clip-path="url(#clip84)"><text font-family="Calibri,Calibri_MSFontService,sans-serif" font-weight="400" font-size="41" transform="matrix(1 0 0 1 2664.25 2550)">Spez.</text></g><g clip-path="url(#clip85)"><text font-family="Calibri,Calibri_MSFontService,sans-serif" font-weight="400" font-size="41" transform="matrix(1 0 0 1 2569.48 2600)">Wärmekapazität</text></g><g clip-path="url(#clip86)"><text font-family="Calibri,Calibri_MSFontService,sans-serif" font-weight="400" font-size="41" transform="matrix(1 0 0 1 2441.1 2945)">Längenausdehnungs</text></g><g clip-path="url(#clip87)"><text font-family="Calibri,Calibri_MSFontService,sans-serif" font-weight="400" font-size="41" transform="matrix(1 0 0 1 2564.02 2995)">koeff.</text></g><g clip-path="url(#clip88)"><text font-family="Calibri,Calibri_MSFontService,sans-serif" font-weight="400" font-size="41" transform="matrix(1 0 0 1 1788.92 2970)">Schmelztemp.</text></g><g clip-path="url(#clip89)"><text font-family="Calibri,Calibri_MSFontService,sans-serif" font-weight="400" font-size="41" transform="matrix(1 0 0 1 1709.35 2550)">Max. Temp</text></g><g clip-path="url(#clip90)"><text font-family="Calibri,Calibri_MSFontService,sans-serif" font-weight="400" font-size="41" transform="matrix(1 0 0 1 1720.36 2600)">dauerhaft</text></g><g clip-path="url(#clip91)"><text font-family="Calibri,Calibri_MSFontService,sans-serif" font-weight="400" font-size="73" transform="matrix(1 0 0 1 1626.64 2276)">ABS vs. SAN</text></g><g clip-path="url(#clip92)"><rect x="2995.5" y="2622.5" width="22" height="23" stroke="#4472C4" stroke-width="4.58333" stroke-linejoin="round" stroke-miterlimit="10" stroke-opacity="0.439216" fill="url(#fill93)"/></g><g clip-path="url(#clip94)"><text font-family="Calibri,Calibri_MSFontService,sans-serif" font-weight="400" font-size="41" transform="matrix(1 0 0 1 3027.38 2645)">ABS</text></g><g clip-path="url(#clip95)"><rect x="2995" y="2700" width="23" height="22" stroke="#FFC000" stroke-width="16.0417" stroke-linejoin="round" stroke-miterlimit="10" stroke-opacity="0.301961" fill="#FFC000" fill-opacity="0.101961"/></g><g clip-path="url(#clip96)"><text font-family="Calibri,Calibri_MSFontService,sans-serif" font-weight="400" font-size="41" transform="matrix(1 0 0 1 3027.38 2723)">SAN</text></g></g></svg>