<?xml version="1.0" encoding="UTF-8" standalone="no"?>
<svg
   xmlns:dc="http://purl.org/dc/elements/1.1/"
   xmlns:cc="http://creativecommons.org/ns#"
   xmlns:rdf="http://www.w3.org/1999/02/22-rdf-syntax-ns#"
   xmlns:svg="http://www.w3.org/2000/svg"
   xmlns="http://www.w3.org/2000/svg"
   xmlns:sodipodi="http://sodipodi.sourceforge.net/DTD/sodipodi-0.dtd"
   xmlns:inkscape="http://www.inkscape.org/namespaces/inkscape"
   width="95.189758mm"
   height="76.557076mm"
   viewBox="0 0 95.189758 76.557076"
   version="1.1"
   id="svg2077"
   inkscape:version="1.0.1 (3bc2e813f5, 2020-09-07)"
   sodipodi:docname="abs_struktur.svg">
  <defs
     id="defs2071" />
  <sodipodi:namedview
     id="base"
     pagecolor="#ffffff"
     bordercolor="#666666"
     borderopacity="1.0"
     inkscape:pageopacity="0.0"
     inkscape:pageshadow="2"
     inkscape:zoom="1.979899"
     inkscape:cx="280.1833"
     inkscape:cy="181.01423"
     inkscape:document-units="mm"
     inkscape:current-layer="layer1"
     inkscape:document-rotation="0"
     showgrid="false"
     showguides="true"
     inkscape:guide-bbox="true"
     fit-margin-top="0"
     fit-margin-left="0"
     fit-margin-right="0"
     fit-margin-bottom="0"
     inkscape:window-width="2560"
     inkscape:window-height="1361"
     inkscape:window-x="2551"
     inkscape:window-y="-9"
     inkscape:window-maximized="1">
    <sodipodi:guide
       position="31.791786,26.871058"
       orientation="0,-1"
       id="guide2745" />
    <sodipodi:guide
       position="69.797561,19.171168"
       orientation="0,-1"
       id="guide2779" />
    <sodipodi:guide
       position="0.25000024,15.568448"
       orientation="1,0"
       id="guide2833" />
    <sodipodi:guide
       position="91.789812,14.632998"
       orientation="1,0"
       id="guide2835" />
    <sodipodi:guide
       position="19.693857,12.895758"
       orientation="0,-1"
       id="guide2866" />
  </sodipodi:namedview>
  <metadata
     id="metadata2074">
    <rdf:RDF>
      <cc:Work
         rdf:about="">
        <dc:format>image/svg+xml</dc:format>
        <dc:type
           rdf:resource="http://purl.org/dc/dcmitype/StillImage" />
        <dc:title></dc:title>
      </cc:Work>
    </rdf:RDF>
  </metadata>
  <g
     inkscape:label="Ebene 1"
     inkscape:groupmode="layer"
     id="layer1"
     transform="translate(-11.777129,-7.5660029)">
    <g
       id="g3003">
      <path
         inkscape:randomized="0"
         inkscape:rounded="0"
         inkscape:flatsided="true"
         sodipodi:arg2="1.5707963"
         sodipodi:arg1="1.0471976"
         sodipodi:r2="14.337818"
         sodipodi:r1="16.555885"
         sodipodi:cy="36.545597"
         sodipodi:cx="40.867661"
         sodipodi:sides="6"
         id="path837-2"
         style="fill:none;stroke:#000000;stroke-width:0.5;stroke-linecap:round;stroke-linejoin:bevel;stroke-miterlimit:4;stroke-dasharray:none"
         sodipodi:type="star"
         transform="rotate(90,72.726967,56.197701)"
         d="m 49.145602,50.883415 -16.555885,-10e-7 -8.277942,-14.337818 8.277944,-14.337817 16.555885,1e-6 8.277942,14.337818 z" />
      <path
         sodipodi:nodetypes="cccccc"
         id="path837-9-2"
         d="M 104.56361,17.050993 V 31.159952 M 92.344891,38.214433 80.126173,31.159951 m 1e-6,-14.108959 12.218717,-7.054481"
         style="fill:none;stroke:#000000;stroke-width:0.5;stroke-linecap:round;stroke-linejoin:round;stroke-miterlimit:4;stroke-dasharray:none" />
      <path
         id="path839-2"
         d="m 92.37907,40.89428 10e-7,11.235234 8.342819,4.81673"
         style="display:inline;fill:none;stroke:#000000;stroke-width:0.499999;stroke-linecap:round;stroke-linejoin:miter;stroke-miterlimit:4;stroke-dasharray:none;stroke-opacity:1" />
      <path
         style="display:inline;fill:none;stroke:#000000;stroke-width:0.349999;stroke-linecap:round;stroke-linejoin:miter;stroke-miterlimit:4;stroke-dasharray:none;stroke-opacity:1"
         d="m 95.569218,64.951913 h 2.976563 V 43.851391 h -2.976563"
         id="path1066-0-7" />
      <path
         style="display:inline;fill:none;stroke:#000000;stroke-width:0.349999;stroke-linecap:round;stroke-linejoin:miter;stroke-miterlimit:4;stroke-dasharray:none;stroke-opacity:1"
         d="M 83.044673,43.851388 H 80.06811 v 21.100523 h 2.976563"
         id="path1066-0-7-6" />
      <path
         style="fill:none;stroke:#000000;stroke-width:0.5;stroke-linecap:round;stroke-linejoin:miter;stroke-miterlimit:4;stroke-dasharray:none;stroke-opacity:1"
         d="M 92.37907,52.129513 84.03625,56.946242 74.051858,51.18175"
         id="path1345"
         sodipodi:nodetypes="ccc" />
      <path
         style="display:inline;fill:none;stroke:#000000;stroke-width:0.5;stroke-linecap:round;stroke-linejoin:round;stroke-miterlimit:4;stroke-dasharray:none;stroke-opacity:1;paint-order:normal"
         d="M 43.568915,57.25202 C 53.856993,51.312195 53.82734,51.329314 53.82734,51.329314 l 9.984464,5.764532 10.240054,-5.912096"
         id="path945-7" />
      <path
         style="display:inline;fill:none;stroke:#000000;stroke-width:0.5;stroke-linecap:round;stroke-linejoin:miter;stroke-miterlimit:4;stroke-dasharray:none;stroke-opacity:1"
         d="m 53.665449,52.81372 8.977842,5.18336"
         id="path1054" />
      <path
         style="display:inline;fill:none;stroke:#000000;stroke-width:0.35;stroke-linecap:round;stroke-linejoin:miter;stroke-miterlimit:4;stroke-dasharray:none;stroke-opacity:1"
         d="m 44.109053,43.85139 h -2.976562 v 21.100521 h 2.976562"
         id="path1066" />
      <path
         style="display:inline;fill:none;stroke:#000000;stroke-width:0.349999;stroke-linecap:round;stroke-linejoin:miter;stroke-miterlimit:4;stroke-dasharray:none;stroke-opacity:1"
         d="m 74.47253,64.951911 h 2.976563 V 43.85139 H 74.47253"
         id="path1066-0" />
      <g
         aria-label="N"
         id="text1025-4-0"
         style="font-size:10.5833px;line-height:1.25;font-family:Bahnschrift;-inkscape-font-specification:Bahnschrift;letter-spacing:0px;word-spacing:0px;display:inline;stroke-width:0.264583"
         transform="translate(-14.787348,-15.591956)">
        <path
           d="m 46.040608,37.586868 h 0.956011 l 3.674183,5.808413 -0.124023,0.134358 v -5.942771 h 1.04386 v 7.508562 h -0.966346 l -3.663847,-5.720563 0.124023,-0.134358 v 5.854921 h -1.043861 z"
           style="stroke-width:0.264583"
           id="path893" />
      </g>
      <path
         style="fill:none;stroke:#000000;stroke-width:0.5;stroke-linecap:round;stroke-linejoin:miter;stroke-miterlimit:4;stroke-dasharray:none;stroke-opacity:1"
         d="m 34.055495,51.759448 -10.49509,6.05934 -10.49509,-6.05934"
         id="path1162" />
      <path
         style="display:inline;fill:none;stroke:#000000;stroke-width:0.349999;stroke-linecap:round;stroke-linejoin:miter;stroke-miterlimit:4;stroke-dasharray:none;stroke-opacity:1"
         d="m 19.906135,43.851391 h -2.97656 v 21.10052 h 2.97656"
         id="path1066-6" />
      <path
         style="display:inline;fill:none;stroke:#000000;stroke-width:0.349999;stroke-linecap:round;stroke-linejoin:miter;stroke-miterlimit:4;stroke-dasharray:none;stroke-opacity:1"
         d="m 35.647595,64.951911 h 2.97657 v -21.10052 h -2.97657"
         id="path1066-2" />
      <path
         style="fill:none;stroke:#000000;stroke-width:0.5;stroke-linecap:round;stroke-linejoin:miter;stroke-miterlimit:4;stroke-dasharray:none;stroke-opacity:1"
         d="m 43.568915,57.25202 -9.51342,-5.49257 -1e-5,-10.44504 1e-5,-9.975413"
         id="path976" />
      <path
         style="fill:none;stroke:#000000;stroke-width:0.5;stroke-linecap:round;stroke-linejoin:miter;stroke-miterlimit:4;stroke-dasharray:none;stroke-opacity:1"
         d="M 32.257855,42.459338 V 31.338994"
         id="path978"
         sodipodi:nodetypes="cc" />
      <path
         style="fill:none;stroke:#000000;stroke-width:0.5;stroke-linecap:round;stroke-linejoin:miter;stroke-miterlimit:4;stroke-dasharray:none;stroke-opacity:1"
         d="m 35.812905,42.564528 0.009,-11.225531"
         id="path980"
         sodipodi:nodetypes="cc" />
      <g
         id="g2848"
         transform="translate(-2.7174578e-7,-1.8040704)">
        <path
           style="fill:none;stroke:#000000;stroke-width:0.5;stroke-linecap:butt;stroke-linejoin:bevel;stroke-miterlimit:4;stroke-dasharray:none;stroke-opacity:1"
           d="m 12.027129,73.031391 c 0,8.846326 42.429447,0 45.503438,8.071729 3.351471,-8.071729 46.036373,0.945214 46.036373,-8.071729"
           id="path2829"
           sodipodi:nodetypes="ccc" />
      </g>
      <g
         aria-label="k"
         id="text2852"
         style="font-size:7.76111px;line-height:1.25;font-family:Bahnschrift;-inkscape-font-specification:Bahnschrift;letter-spacing:0px;word-spacing:0px;stroke-width:0.264583">
        <path
           d="m 35.621398,69.73561 2.023648,-2.440505 h 0.909505 l -2.982418,3.357589 z m -0.333486,-4.016981 h 0.77308 v 5.510085 h -0.77308 z m 1.24678,3.240112 0.496439,-0.515386 1.71669,2.785359 h -0.841292 z"
           style="font-size:7.76111px;stroke-width:0.264583"
           id="path2963" />
      </g>
      <g
         aria-label="l"
         id="text2856"
         style="font-size:7.76111px;line-height:1.25;font-family:Bahnschrift;-inkscape-font-specification:Bahnschrift;letter-spacing:0px;word-spacing:0px;stroke-width:0.264583">
        <path
           d="m 76.71398,70.222835 q 0,0.144005 0.06063,0.223587 0.06442,0.07579 0.178111,0.07579 h 0.363802 v 0.735183 h -0.454752 q -0.439594,0 -0.682129,-0.272851 -0.238745,-0.272852 -0.238745,-0.76929 v -4.486892 h 0.773079 z"
           style="font-size:7.76111px;stroke-width:0.264583"
           id="path2969" />
      </g>
      <g
         aria-label="m"
         id="text2860"
         style="font-size:7.76111px;line-height:1.25;font-family:Bahnschrift;-inkscape-font-specification:Bahnschrift;letter-spacing:0px;word-spacing:0px;stroke-width:0.264583">
        <path
           d="m 97.935878,68.82884 q 0,-0.416856 -0.216007,-0.644232 -0.216008,-0.227377 -0.606337,-0.227377 -0.360012,0 -0.557072,0.219797 -0.197059,0.219797 -0.197059,0.621496 l -0.155374,-0.757921 q 0.185691,-0.39033 0.488859,-0.602547 0.306958,-0.216008 0.67455,-0.216008 0.424435,0 0.723814,0.18948 0.303168,0.185691 0.458542,0.545703 0.159164,0.360013 0.159164,0.86782 v 2.387451 h -0.77308 z m -4.699109,-1.549948 h 0.773079 v 3.93361 h -0.773079 z m 2.349555,1.549948 q 0,-0.416856 -0.204639,-0.644232 -0.204639,-0.227377 -0.57981,-0.227377 -0.37896,0 -0.587388,0.200849 -0.204639,0.200849 -0.204639,0.564651 l -0.07958,-0.75792 q 0.181901,-0.356223 0.473701,-0.549493 0.295589,-0.19327 0.651812,-0.19327 0.413067,0 0.704866,0.18948 0.2918,0.185691 0.443384,0.545703 0.155374,0.360013 0.155374,0.86782 v 2.387451 h -0.773079 z"
           style="font-size:7.76111px;stroke-width:0.264583"
           id="path2972" />
      </g>
      <g
         aria-label="n"
         id="text2864"
         style="font-size:7.76111px;line-height:1.25;font-family:Bahnschrift;-inkscape-font-specification:Bahnschrift;letter-spacing:0px;word-spacing:0px;stroke-width:0.264583">
        <path
           d="m 55.997942,80.189468 h 0.773079 v 3.933609 h -0.773079 z m 2.387451,1.549948 q 0,-0.416856 -0.216008,-0.644233 -0.216007,-0.227376 -0.606336,-0.227376 -0.378961,0 -0.587389,0.200849 -0.204639,0.200849 -0.204639,0.564651 l -0.07958,-0.757921 q 0.181901,-0.356222 0.4737,-0.549492 0.295589,-0.19327 0.651812,-0.19327 0.640443,0 0.989087,0.420646 0.352433,0.416857 0.352433,1.182357 v 2.38745 h -0.773079 z"
           style="font-size:7.76111px;stroke-width:0.264583"
           id="path2966" />
      </g>
    </g>
  </g>
</svg>
