<?xml version="1.0" encoding="UTF-8" standalone="no"?>
<svg
   xmlns:dc="http://purl.org/dc/elements/1.1/"
   xmlns:cc="http://creativecommons.org/ns#"
   xmlns:rdf="http://www.w3.org/1999/02/22-rdf-syntax-ns#"
   xmlns:svg="http://www.w3.org/2000/svg"
   xmlns="http://www.w3.org/2000/svg"
   xmlns:sodipodi="http://sodipodi.sourceforge.net/DTD/sodipodi-0.dtd"
   xmlns:inkscape="http://www.inkscape.org/namespaces/inkscape"
   width="31.985271mm"
   height="52.314957mm"
   viewBox="0 0 31.985271 52.314957"
   version="1.1"
   id="svg996"
   inkscape:version="1.0.1 (3bc2e813f5, 2020-09-07)"
   sodipodi:docname="polyacrylnitril.svg">
  <defs
     id="defs990" />
  <sodipodi:namedview
     id="base"
     pagecolor="#ffffff"
     bordercolor="#666666"
     borderopacity="1.0"
     inkscape:pageopacity="0.0"
     inkscape:pageshadow="2"
     inkscape:zoom="0.35"
     inkscape:cx="49.016037"
     inkscape:cy="250.29148"
     inkscape:document-units="mm"
     inkscape:current-layer="layer1"
     inkscape:document-rotation="0"
     showgrid="false"
     fit-margin-top="0"
     fit-margin-left="0"
     fit-margin-right="0"
     fit-margin-bottom="0"
     inkscape:window-width="2560"
     inkscape:window-height="1361"
     inkscape:window-x="2551"
     inkscape:window-y="-9"
     inkscape:window-maximized="1" />
  <metadata
     id="metadata993">
    <rdf:RDF>
      <cc:Work
         rdf:about="">
        <dc:format>image/svg+xml</dc:format>
        <dc:type
           rdf:resource="http://purl.org/dc/dcmitype/StillImage" />
        <dc:title></dc:title>
      </cc:Work>
    </rdf:RDF>
  </metadata>
  <g
     inkscape:label="Ebene 1"
     inkscape:groupmode="layer"
     id="layer1"
     transform="translate(-92.864507,-81.943713)">
    <g
       id="g1199"
       style="display:inline"
       transform="translate(65.289064,44.356845)">
      <g
         aria-label="N"
         id="text1025-4-0"
         style="font-size:10.5833px;line-height:1.25;font-family:Bahnschrift;-inkscape-font-specification:Bahnschrift;letter-spacing:0px;word-spacing:0px;display:inline;stroke-width:0.264583">
        <path
           d="m 46.040608,37.586868 h 0.956011 l 3.674183,5.808413 -0.124023,0.134358 v -5.942771 h 1.04386 v 7.508562 h -0.966346 l -3.663847,-5.720563 0.124023,-0.134358 v 5.854921 h -1.043861 z"
           style="stroke-width:0.264583"
           id="path893" />
      </g>
      <g
         aria-label="C"
         id="text1114"
         style="font-size:10.5833px;line-height:1.25;font-family:Bahnschrift;-inkscape-font-specification:Bahnschrift;letter-spacing:0px;word-spacing:0px;stroke-width:0.264583">
        <path
           d="m 48.93667,65.812172 q -0.780311,0 -1.374588,-0.346231 -0.58911,-0.346231 -0.91467,-0.981849 -0.325561,-0.635618 -0.325561,-1.472774 v -2.061883 q 0,-0.837156 0.325561,-1.472774 0.32556,-0.635618 0.91467,-0.981849 0.594277,-0.351398 1.374588,-0.351398 0.645954,0 1.188554,0.279051 0.542601,0.273885 0.904335,0.780312 0.366902,0.506427 0.496092,1.173051 v 0 h -1.080034 v 0 q -0.09819,-0.351398 -0.330728,-0.625283 -0.227375,-0.279051 -0.537433,-0.428913 -0.310058,-0.149861 -0.640786,-0.149861 -0.459918,0 -0.806149,0.222208 -0.346231,0.222208 -0.537434,0.625283 -0.191202,0.397907 -0.191202,0.930173 v 2.061883 q 0,0.527098 0.191202,0.930173 0.191203,0.403075 0.537434,0.625283 0.346231,0.21704 0.806149,0.21704 0.335896,0 0.640786,-0.139526 0.310058,-0.139526 0.537433,-0.41341 0.232543,-0.273884 0.330728,-0.651121 v 0 h 1.080034 v 0 q -0.12919,0.666624 -0.496092,1.173051 -0.366901,0.506428 -0.909502,0.785479 -0.542601,0.273885 -1.183387,0.273885 z"
           style="stroke-width:0.264583"
           id="path896" />
      </g>
      <path
         style="fill:none;stroke:#000000;stroke-width:0.5;stroke-linecap:butt;stroke-linejoin:miter;stroke-miterlimit:4;stroke-dasharray:none;stroke-opacity:1"
         d="M 48.815624,46.963541 V 57.083853"
         id="path1118" />
      <path
         style="display:inline;fill:none;stroke:#000000;stroke-width:0.499999;stroke-linecap:butt;stroke-linejoin:miter;stroke-miterlimit:4;stroke-dasharray:none;stroke-opacity:1"
         d="M 46.434375,46.963541 V 57.083853"
         id="path1118-6" />
      <path
         style="display:inline;fill:none;stroke:#000000;stroke-width:0.499999;stroke-linecap:butt;stroke-linejoin:miter;stroke-miterlimit:4;stroke-dasharray:none;stroke-opacity:1"
         d="M 51.196875,46.963541 V 57.083853"
         id="path1118-2" />
      <path
         style="display:inline;fill:none;stroke:#000000;stroke-width:0.499999;stroke-linecap:butt;stroke-linejoin:miter;stroke-miterlimit:4;stroke-dasharray:none;stroke-opacity:1"
         d="M 48.815624,67.296387 V 77.416699"
         id="path1118-65" />
      <path
         style="fill:none;stroke:#000000;stroke-width:0.5;stroke-linecap:round;stroke-linejoin:miter;stroke-miterlimit:4;stroke-dasharray:none;stroke-opacity:1"
         d="M 48.815624,77.416699 38.320535,83.476041 27.825443,77.416699"
         id="path1162" />
      <path
         style="fill:none;stroke:#000000;stroke-width:0.5;stroke-linecap:round;stroke-linejoin:miter;stroke-miterlimit:4;stroke-dasharray:none;stroke-opacity:1"
         d="m 48.815624,77.416699 10.49509,6.059342"
         id="path1164" />
      <path
         style="display:inline;fill:none;stroke:#000000;stroke-width:0.349999;stroke-linecap:round;stroke-linejoin:miter;stroke-miterlimit:4;stroke-dasharray:none;stroke-opacity:1"
         d="m 35.024218,68.626303 h -2.976562 v 21.100521 h 2.976562"
         id="path1066-6" />
      <path
         style="display:inline;fill:none;stroke:#000000;stroke-width:0.349999;stroke-linecap:round;stroke-linejoin:miter;stroke-miterlimit:4;stroke-dasharray:none;stroke-opacity:1"
         d="m 53.478907,89.726824 h 2.976562 V 68.626303 h -2.976562"
         id="path1066-2" />
    </g>
  </g>
</svg>
