<?xml version="1.0" encoding="UTF-8" standalone="no"?>
<!-- Generator: Adobe Illustrator 12.0.1, SVG Export Plug-In . SVG Version: 6.00 Build 51448)  -->
<svg
   xmlns:dc="http://purl.org/dc/elements/1.1/"
   xmlns:cc="http://web.resource.org/cc/"
   xmlns:rdf="http://www.w3.org/1999/02/22-rdf-syntax-ns#"
   xmlns:svg="http://www.w3.org/2000/svg"
   xmlns="http://www.w3.org/2000/svg"
   xmlns:sodipodi="http://sodipodi.sourceforge.net/DTD/sodipodi-0.dtd"
   xmlns:inkscape="http://www.inkscape.org/namespaces/inkscape"
   version="1.1"
   id="Layer_1"
   width="105.032"
   height="145.284"
   viewBox="0 0 105.032 145.284"
   style="overflow:visible;enable-background:new 0 0 105.032 145.284;"
   xml:space="preserve"
   sodipodi:version="0.32"
   inkscape:version="0.45.1"
   sodipodi:docname="Styrol.svg"
   inkscape:output_extension="org.inkscape.output.svg.inkscape"
   sodipodi:docbase="C:\"><metadata
   id="metadata40"><rdf:RDF><cc:Work
       rdf:about=""><dc:format>image/svg+xml</dc:format><dc:type
         rdf:resource="http://purl.org/dc/dcmitype/StillImage" /></cc:Work></rdf:RDF></metadata><defs
   id="defs38" /><sodipodi:namedview
   inkscape:window-height="579"
   inkscape:window-width="801"
   inkscape:pageshadow="2"
   inkscape:pageopacity="0.0"
   guidetolerance="10.0"
   gridtolerance="10.0"
   objecttolerance="10.0"
   borderopacity="1.0"
   bordercolor="#666666"
   pagecolor="#ffffff"
   id="base"
   inkscape:zoom="2.6018007"
   inkscape:cx="52.515999"
   inkscape:cy="72.641998"
   inkscape:window-x="22"
   inkscape:window-y="22"
   inkscape:current-layer="Layer_1" />
<path
   style="fill:#231f20"
   d="M 4.23985,121.4169 L 2.6258,122.32035 L 2.6258,83.7019 L 4.23985,84.6519 L 4.23985,121.4169 z "
   id="polygon3" />
<path
   style="fill:#231f20"
   d="M 8.2773499,87.454401 L 9.8923499,87.454401 L 9.8923499,118.6144 L 8.2773499,118.6144 L 8.2773499,87.454401 z "
   id="rect5" />
<path
   style="fill:#231f20"
   d="M 36.06485,139.7994 L 36.06485,141.6519 L 2.6258,122.32035 L 4.23985,121.4169 L 36.06485,139.7994 z "
   id="polygon7" />
<path
   style="fill:#231f20"
   d="M 67.88985,121.4169 L 69.50485,122.32035 L 36.06485,141.6519 L 36.06485,139.7994 L 67.88985,121.4169 z "
   id="polygon9" />
<path
   style="fill:#231f20"
   d="M 62.66485,117.9019 L 63.4733,119.3269 L 36.49235,134.90785 L 35.6858,133.48285 L 62.66485,117.9019 z "
   id="polygon11" />
<path
   style="fill:#231f20"
   d="M 67.88985,84.6519 L 69.50485,83.7019 L 69.50485,122.32035 L 67.88985,121.4169 L 67.88985,84.6519 z "
   id="polygon13" />
<path
   style="fill:#231f20"
   d="M 36.06485,66.27035 L 36.06485,65.32035 L 36.8733,64.84535 L 69.50485,83.7019 L 67.88985,84.6519 L 36.06485,66.27035 z "
   id="polygon15" />
<path
   style="fill:#231f20"
   d="M 35.6858,72.5394 L 36.49235,71.1619 L 63.4733,86.7419 L 62.66485,88.12035 L 35.6858,72.5394 z "
   id="polygon17" />
<path
   style="fill:#231f20"
   d="M 4.23985,84.6519 L 2.6258,83.7019 L 35.2583,64.84535 L 36.06485,65.32035 L 36.06485,66.27035 L 4.23985,84.6519 z "
   id="polygon19" />
<path
   style="fill:#231f20"
   d="M 35.2583,27.1769 L 36.8733,28.1269 L 36.8733,64.84535 L 36.06485,65.32035 L 35.2583,64.84535 L 35.2583,27.1769 z "
   id="polygon21" />
<g
   id="g23"
   transform="matrix(0.95,0,0,0.95,2.6258,3.6321)">
	<path
   style="fill:#231f20"
   d="M 76.493,11.457 L 78.774,12.031 C 78.297,13.901 77.441,15.327 76.205,16.308 C 74.968,17.289 73.456,17.781 71.669,17.781 C 69.819,17.781 68.315,17.404 67.155,16.649 C 65.996,15.895 65.114,14.801 64.509,13.371 C 63.904,11.941 63.602,10.403 63.602,8.762 C 63.602,6.972 63.944,5.409 64.625,4.076 C 65.309,2.743 66.279,1.729 67.54,1.038 C 68.801,0.347 70.188,0 71.701,0 C 73.418,0 74.861,0.438 76.031,1.314 C 77.202,2.191 78.016,3.422 78.477,5.011 L 76.243,5.538 C 75.845,4.288 75.268,3.378 74.512,2.808 C 73.756,2.238 72.803,1.953 71.657,1.953 C 70.339,1.953 69.237,2.269 68.351,2.902 C 67.466,3.535 66.843,4.384 66.485,5.451 C 66.127,6.518 65.947,7.617 65.947,8.75 C 65.947,10.211 66.16,11.486 66.584,12.576 C 67.01,13.666 67.67,14.48 68.566,15.019 C 69.462,15.558 70.433,15.828 71.478,15.828 C 72.748,15.828 73.824,15.461 74.705,14.726 C 75.586,13.991 76.181,12.902 76.493,11.457 z "
   id="path25" />
	<path
   style="fill:#231f20"
   d="M 81.669,17.484 L 81.669,0.297 L 83.95,0.297 L 83.95,7.36 L 92.841,7.36 L 92.841,0.297 L 95.122,0.297 L 95.122,17.485 L 92.841,17.485 L 92.841,9.391 L 83.95,9.391 L 83.95,17.485 L 81.669,17.485 L 81.669,17.484 z "
   id="path27" />
</g>
<g
   id="g29"
   transform="matrix(0.95,0,0,0.95,2.6258,3.6321)">
	<path
   style="fill:#231f20"
   d="M 105.032,20.469 L 105.032,21.985 L 96.501,21.985 C 96.489,21.604 96.55,21.238 96.687,20.886 C 96.905,20.306 97.253,19.735 97.735,19.173 C 98.215,18.611 98.906,17.962 99.804,17.226 C 101.2,16.073 102.147,15.162 102.644,14.492 C 103.142,13.822 103.392,13.187 103.392,12.589 C 103.392,11.963 103.166,11.436 102.716,11.005 C 102.266,10.575 101.679,10.36 100.956,10.36 C 100.19,10.36 99.579,10.589 99.12,11.048 C 98.661,11.507 98.429,12.142 98.423,12.953 L 96.798,12.781 C 96.909,11.565 97.329,10.639 98.058,10.003 C 98.786,9.365 99.763,9.047 100.992,9.047 C 102.23,9.047 103.211,9.39 103.933,10.076 C 104.656,10.762 105.017,11.612 105.017,12.626 C 105.017,13.142 104.911,13.649 104.699,14.147 C 104.488,14.645 104.136,15.17 103.646,15.721 C 103.156,16.272 102.342,17.028 101.207,17.989 C 100.256,18.787 99.644,19.327 99.373,19.612 C 99.102,19.895 98.877,20.181 98.701,20.468 L 105.032,20.468 L 105.032,20.469 z "
   id="path31" />
</g>
<path
   style="fill:#231f20"
   d="M 59.76735,13.0219 L 60.57485,14.4469 L 36.8733,28.1269 L 35.2583,27.1769 L 59.76735,13.0219 z "
   id="polygon33" />
<path
   style="fill:#231f20"
   d="M 62.5708,17.9144 L 63.37735,19.3394 L 42.1458,31.59535 L 41.33735,30.2169 L 62.5708,17.9144 z "
   id="polygon35" />
</svg>